<svg width="100%" height="100%" viewBox="0 0 1920 371" version="1.1" xmlns="http://www.w3.org/2000/svg" xmlns:xlink="http://www.w3.org/1999/xlink" xml:space="preserve" style="fill-rule:evenodd;clip-rule:evenodd;stroke-linejoin:round;stroke-miterlimit:2;">
    <g>
        <rect x="0" y="0" width="1920" height="370.992" style="fill:rgb(56,70,116);fill-opacity:0;"/>
        <clipPath id="_clip1">
            <rect x="0" y="0" width="1920" height="370.992"/>
        </clipPath>
        <g clip-path="url(#_clip1)">
            <g transform="matrix(6.99659,-0.00578998,0.00146511,1.77043,-841.952,-831.992)">
                <path d="M474.167,363.714C474.167,337.171 468.714,315.622 461.998,315.622L216.067,315.622C209.35,315.622 203.897,337.171 203.897,363.714L203.897,459.899C203.897,486.441 209.35,507.991 216.067,507.991L461.998,507.991C468.714,507.991 474.167,486.441 474.167,459.899L474.167,363.714Z" style="fill:white;fill-opacity:0.78;"/>
            </g>
            <g transform="matrix(7.21941,-0.346202,0.084737,1.76704,-1003.85,-668.312)">
                <path d="M474.167,363.714C474.167,337.171 468.893,315.622 462.396,315.622L215.668,315.622C209.172,315.622 203.897,337.171 203.897,363.714L203.897,459.899C203.897,486.441 209.172,507.991 215.668,507.991L462.396,507.991C468.893,507.991 474.167,486.441 474.167,459.899L474.167,363.714Z" style="fill:white;fill-opacity:0.6;"/>
            </g>
            <g transform="matrix(7.31289,-0.789645,0.179619,1.66345,-1115.72,-399.966)">
                <path d="M474.167,363.714C474.167,337.171 469.266,315.622 463.228,315.622L214.837,315.622C208.799,315.622 203.897,337.171 203.897,363.714L203.897,459.899C203.897,486.441 208.799,507.991 214.837,507.991L463.228,507.991C469.266,507.991 474.167,486.441 474.167,459.899L474.167,363.714Z" style="fill:white;fill-opacity:0.3;"/>
            </g>
        </g>
    </g>
</svg>
