<svg width="273px" height="116px" version="1.1" xmlns="http://www.w3.org/2000/svg" xmlns:xlink="http://www.w3.org/1999/xlink" xml:space="preserve"  style="fill-rule:evenodd;clip-rule:evenodd;stroke-linejoin:round;stroke-miterlimit:2;">
    <g transform="matrix(1,0,0,1,-6309.15,-799.618)">
        <g transform="matrix(0.983064,0,0,0.321111,5780.19,709.516)">
            <rect x="538.072" y="280.593" width="277.5" height="360" style="fill:none;"/>
            <clipPath id="_clip1">
                <rect x="538.072" y="280.593" width="277.5" height="360"/>
            </clipPath>
            <g clip-path="url(#_clip1)">
                <g transform="matrix(1.04289,-3.19275,0.878831,2.69049,-6741.01,19381.3)">
                    <path d="M6621.25,743.761C6621.25,736.534 6616.31,730.666 6610.21,730.666L6529.89,730.666C6523.79,730.666 6518.85,736.534 6518.85,743.761L6518.85,819.97C6518.85,827.198 6523.79,833.066 6529.89,833.066L6610.21,833.066C6616.31,833.066 6621.25,827.198 6621.25,819.97L6621.25,743.761Z" style="fill:rgb(63,78,198);fill-opacity:0.03;"/>
                </g>
                <g transform="matrix(1.04289,-3.19275,0.878831,2.69049,-6709.34,19381.3)">
                    <path d="M6621.25,743.761C6621.25,736.534 6616.31,730.666 6610.21,730.666L6529.89,730.666C6523.79,730.666 6518.85,736.534 6518.85,743.761L6518.85,819.97C6518.85,827.198 6523.79,833.066 6529.89,833.066L6610.21,833.066C6616.31,833.066 6621.25,827.198 6621.25,819.97L6621.25,743.761Z" style="fill:rgb(63,78,198);fill-opacity:0.03;"/>
                </g>
                <g transform="matrix(1.04289,-3.19275,0.878831,2.69049,-6679.34,19381.3)">
                    <path d="M6621.25,743.761C6621.25,736.534 6616.31,730.666 6610.21,730.666L6529.89,730.666C6523.79,730.666 6518.85,736.534 6518.85,743.761L6518.85,819.97C6518.85,827.198 6523.79,833.066 6529.89,833.066L6610.21,833.066C6616.31,833.066 6621.25,827.198 6621.25,819.97L6621.25,743.761Z" style="fill:rgb(63,78,198);fill-opacity:0.03;"/>
                </g>
            </g>
        </g>
    </g>
</svg>