<svg width="687px" height="236px" version="1.1" xmlns="http://www.w3.org/2000/svg" xmlns:xlink="http://www.w3.org/1999/xlink" xml:space="preserve" style="fill-rule:evenodd;clip-rule:evenodd;stroke-linejoin:round;stroke-miterlimit:2;">
    <g transform="matrix(1,0,0,1,-6959.85,828.292)">
        <g transform="matrix(1,0,0,1.08295,650.697,-1071.84)">
            <rect x="6309.15" y="224.895" width="686.784" height="217" style="fill:url(#_Linear1);"/>
            <clipPath id="_clip2">
                <rect x="6309.15" y="224.895" width="686.784" height="217"/>
            </clipPath>
            <g clip-path="url(#_clip2)">
                <g>
                    <g transform="matrix(0.492624,-0.36243,0.607922,0.704568,3395,2644.51)">
                        <path d="M7228,294.627C7228,285.576 7216.61,278.227 7202.59,278.227L6759.4,278.227C6745.38,278.227 6734,285.576 6734,294.627L6734,513.25C6734,522.302 6745.38,529.651 6759.4,529.651L7202.59,529.651C7216.61,529.651 7228,522.302 7228,513.25L7228,294.627Z" style="fill:rgb(227,242,253);fill-opacity:0.1;"/>
                    </g>
                    <g transform="matrix(0.492624,-0.36243,0.607922,0.704568,3329,2644.51)">
                        <path d="M7228,294.627C7228,285.576 7216.61,278.227 7202.59,278.227L6759.4,278.227C6745.38,278.227 6734,285.576 6734,294.627L6734,513.25C6734,522.302 6745.38,529.651 6759.4,529.651L7202.59,529.651C7216.61,529.651 7228,522.302 7228,513.25L7228,294.627Z" style="fill:rgb(227,242,253);fill-opacity:0.1;"/>
                    </g>
                    <g transform="matrix(0.492624,-0.36243,0.607922,0.704568,3259,2644.51)">
                        <path d="M7228,294.627C7228,285.576 7216.61,278.227 7202.59,278.227L6759.4,278.227C6745.38,278.227 6734,285.576 6734,294.627L6734,513.25C6734,522.302 6745.38,529.651 6759.4,529.651L7202.59,529.651C7216.61,529.651 7228,522.302 7228,513.25L7228,294.627Z" style="fill:rgb(227,242,253);fill-opacity:0.1;"/>
                    </g>
                </g>
            </g>
        </g>
    </g>
    <defs>
        <linearGradient id="_Linear1" x1="0" y1="0" x2="1" y2="0" gradientUnits="userSpaceOnUse" gradientTransform="matrix(686.784,0,-0,634.179,6309.15,333.395)"><stop offset="0" style="stop-color:rgb(229,90,55);stop-opacity:1"/><stop offset="1" style="stop-color:rgb(238,176,50);stop-opacity:1"/></linearGradient>
    </defs>
</svg>