<svg xmlns="http://www.w3.org/2000/svg" width="100%" height="100%" viewBox="0 0 223 223" fill-rule="evenodd"
     stroke-linejoin="round" stroke-miterlimit="2"><g transform="translate(-764 -477)"><path d="M985.251 565.939c7.142-26.655-8.702-54.095-35.357-61.238l-96.593-25.882c-26.655-7.142-54.095 8.7-61.237 35.355l-25.882 96.593c-7.142 26.656 8.7 54.095 35.355 61.237l96.593 25.882c26.655 7.142 54.096-8.699 61.239-35.355l25.882-96.593z" fill="#d8edff"/><path d="M964.471 537.329c0-27.595-22.406-50-50.002-50h-100c-27.595 0-50 22.405-50 50v100c0 27.596 22.405 50 50 50h100c27.595 0 50.002-22.404 50.002-50v-100z" fill="#108dff"/><path d="M1021.75 564.747c0-32.673-26.081-59.2-58.202-59.2h-116.4c-32.121 0-58.2 26.527-58.2 59.2v118.4c0 32.674 26.079 59.2 58.2 59.2h116.4c32.121 0 58.202-26.526 58.202-59.2v-118.4z" fill="url(#A)" transform="matrix(.859107 0 0 .844595 86.6781 60.3462)"/><text x="831.153" y="631.766" font-family="SegoeUI-Bold, Segoe UI, sans-serif" font-weight="700" font-size="144" fill-opacity=".1">D</text><text x="806.153" y="637.742" font-family="SegoeUI-Bold, Segoe UI, sans-serif" font-weight="700" font-size="144" fill="#fff">D</text></g><defs><linearGradient id="A" x1="0" y1="0" x2="1" y2="0" gradientUnits="userSpaceOnUse" gradientTransform="matrix(294.794,-68.45,67.2937,299.859,788.948,654.676)"><stop offset="0" stop-color="#fff" stop-opacity=".35"/><stop offset=".9" stop-color="#2999ff" stop-opacity=".04"/><stop offset="1" stop-color="#108dff" stop-opacity="0"/></linearGradient></defs></svg>